<svg width="329" height="331" viewBox="0 0 329 331" fill="none" xmlns="http://www.w3.org/2000/svg">
<circle cx="121" cy="104" r="103" fill="#FFEF60" stroke="#2D2D2D" stroke-width="2"/>
<path d="M155.895 169.084C105.276 169.084 76.9288 138.1 1 169.084V330H164.5H328V169.084C300.666 156.091 309.777 149.095 265.232 150.094C220.687 151.094 206.514 169.084 155.895 169.084Z" fill="#87A0DF" stroke="black"/>
<path d="M155.895 203.055C105.276 203.055 76.9288 178.613 1 203.055V330H164.5H328V203.055C300.666 192.805 309.777 187.286 265.232 188.074C220.687 188.863 206.514 203.055 155.895 203.055Z" fill="#5F86E9" stroke="black"/>
<path d="M155.895 242.39C105.276 242.39 76.9288 225.521 1 242.39V330H164.5H328V242.39C300.666 235.316 309.777 231.507 265.232 232.051C220.687 232.595 206.514 242.39 155.895 242.39Z" fill="#F5EBC5" stroke="black"/>
<path d="M155.895 285.301C105.276 285.301 76.9288 276.695 1 285.301V330H164.5H328V285.301C300.666 281.692 309.777 279.749 265.232 280.026C220.687 280.304 206.514 285.301 155.895 285.301Z" fill="#B69D79" stroke="black"/>
<path d="M129 75.3065C142.5 59.3065 153.5 65.3065 162 70.3065C170.5 62.3065 173.5 51.3065 192 63.3065" stroke="black" stroke-width="2"/>
<path d="M214 94C207.786 84.7549 202.722 88.2218 198.81 91.1109C194.897 86.4884 193.516 80.1324 185 87.0662" stroke="black" stroke-width="2"/>
<path d="M194.839 119.82C184.718 109.929 175.79 112.848 168.878 115.313C162.431 110.282 160.449 103.79 145.365 109.801" stroke="black" stroke-width="2"/>
</svg>
