<svg width="54" height="35" viewBox="0 0 54 35" fill="none" xmlns="http://www.w3.org/2000/svg">
<path d="M8.168 34.624L0.0560001 34V33.52L0.536 33.424C1.784 33.136 2.408 32.336 2.408 31.024V5.344C2.408 4.672 2.296 4.16 2.072 3.808C1.88 3.456 1.464 3.216 0.824 3.088L0.152 2.896V2.416L8.696 0.351998L9.272 0.783998L9.08 7.552V12.4C10.136 11.664 11.288 11.12 12.536 10.768C13.784 10.384 15.048 10.192 16.328 10.192C18.152 10.192 19.768 10.624 21.176 11.488C22.584 12.32 23.688 13.632 24.488 15.424C25.32 17.184 25.736 19.456 25.736 22.24C25.736 25.024 25.272 27.344 24.344 29.2C23.448 31.024 22.232 32.4 20.696 33.328C19.192 34.256 17.528 34.72 15.704 34.72C14.52 34.72 13.32 34.56 12.104 34.24C10.92 33.92 9.864 33.472 8.936 32.896L8.168 34.624ZM13.304 33.088C14.328 33.088 15.224 32.768 15.992 32.128C16.76 31.488 17.368 30.4 17.816 28.864C18.264 27.296 18.488 25.152 18.488 22.432C18.488 19.712 18.28 17.616 17.864 16.144C17.448 14.672 16.856 13.648 16.088 13.072C15.352 12.496 14.456 12.208 13.4 12.208C11.896 12.208 10.504 12.624 9.224 13.456V31.888C9.832 32.272 10.456 32.576 11.096 32.8C11.736 32.992 12.472 33.088 13.304 33.088ZM27.8506 34V33.52L28.5226 33.328C29.6426 33.008 30.2026 32.224 30.2026 30.976V15.952C30.2026 15.248 30.0906 14.736 29.8666 14.416C29.6426 14.064 29.2106 13.824 28.5706 13.696L27.8506 13.504V13.024L36.0586 10.24L36.5386 10.72L36.9226 13.6C38.0426 12.608 39.3066 11.792 40.7146 11.152C42.1226 10.512 43.5146 10.192 44.8906 10.192C47.0026 10.192 48.6186 10.768 49.7386 11.92C50.8906 13.072 51.4666 14.832 51.4666 17.2V31.024C51.4666 32.272 52.0746 33.056 53.2906 33.376L53.7226 33.52V34H42.3946V33.52L43.0186 33.328C44.1386 32.976 44.6986 32.192 44.6986 30.976V15.664C44.6986 13.616 43.6746 12.592 41.6266 12.592C40.2186 12.592 38.6826 13.296 37.0186 14.704V31.024C37.0186 32.272 37.5786 33.056 38.6986 33.376L39.1306 33.52V34H27.8506Z" fill="black"/>
</svg>
